<?xml version="1.0" encoding="UTF-8" standalone="no"?>
<!-- Created with Inkscape (http://www.inkscape.org/) -->

<svg
   width="151"
   height="59"
   viewBox="0 0 39.952082 15.610417"
   version="1.1"
   id="svg1"
   xml:space="preserve"
   inkscape:version="1.3.2 (1:1.3.2+202311252150+091e20ef0f)"
   sodipodi:docname="benzyme-logo-on-black.svg"
   xmlns:inkscape="http://www.inkscape.org/namespaces/inkscape"
   xmlns:sodipodi="http://sodipodi.sourceforge.net/DTD/sodipodi-0.dtd"
   xmlns="http://www.w3.org/2000/svg"
   xmlns:svg="http://www.w3.org/2000/svg"><sodipodi:namedview
     id="namedview1"
     pagecolor="#ffffff"
     bordercolor="#666666"
     borderopacity="1.0"
     inkscape:showpageshadow="2"
     inkscape:pageopacity="0.0"
     inkscape:pagecheckerboard="0"
     inkscape:deskcolor="#d1d1d1"
     inkscape:document-units="mm"
     inkscape:zoom="1.9956125"
     inkscape:cx="181.14739"
     inkscape:cy="15.534078"
     inkscape:window-width="1850"
     inkscape:window-height="1016"
     inkscape:window-x="0"
     inkscape:window-y="0"
     inkscape:window-maximized="1"
     inkscape:current-layer="layer1" /><defs
     id="defs1"><clipPath
       clipPathUnits="userSpaceOnUse"
       id="clipPath2517"><path
         d="M 0,589.265 H 589.265 V 0 H 0 Z"
         id="path2515" /></clipPath><clipPath
       clipPathUnits="userSpaceOnUse"
       id="clipPath2541"><path
         d="M 0,589.265 H 589.265 V 0 H 0 Z"
         id="path2539" /></clipPath><clipPath
       clipPathUnits="userSpaceOnUse"
       id="clipPath2581"><path
         d="M 0,589.265 H 589.265 V 0 H 0 Z"
         id="path2579" /></clipPath><clipPath
       clipPathUnits="userSpaceOnUse"
       id="clipPath2797"><path
         d="M 0,589.265 H 589.265 V 0 H 0 Z"
         id="path2795" /></clipPath><clipPath
       clipPathUnits="userSpaceOnUse"
       id="clipPath2821"><path
         d="M 0,589.265 H 589.265 V 0 H 0 Z"
         id="path2819" /></clipPath><clipPath
       clipPathUnits="userSpaceOnUse"
       id="clipPath2861"><path
         d="M 0,589.265 H 589.265 V 0 H 0 Z"
         id="path2859" /></clipPath><clipPath
       clipPathUnits="userSpaceOnUse"
       id="clipPath854"><path
         d="M 0,212.941 H 590.647 V 0 H 0 Z"
         id="path852" /></clipPath><clipPath
       clipPathUnits="userSpaceOnUse"
       id="clipPath878"><path
         d="M 0,212.941 H 590.647 V 0 H 0 Z"
         id="path876" /></clipPath><clipPath
       clipPathUnits="userSpaceOnUse"
       id="clipPath918"><path
         d="M 0,212.941 H 590.647 V 0 H 0 Z"
         id="path916" /></clipPath><clipPath
       clipPathUnits="userSpaceOnUse"
       id="clipPath2517-1"><path
         d="M 0,589.265 H 589.265 V 0 H 0 Z"
         id="path2515-0" /></clipPath><clipPath
       clipPathUnits="userSpaceOnUse"
       id="clipPath2541-3"><path
         d="M 0,589.265 H 589.265 V 0 H 0 Z"
         id="path2539-0" /></clipPath><clipPath
       clipPathUnits="userSpaceOnUse"
       id="clipPath2581-4"><path
         d="M 0,589.265 H 589.265 V 0 H 0 Z"
         id="path2579-4" /></clipPath><clipPath
       clipPathUnits="userSpaceOnUse"
       id="clipPath2797-4"><path
         d="M 0,589.265 H 589.265 V 0 H 0 Z"
         id="path2795-4" /></clipPath><clipPath
       clipPathUnits="userSpaceOnUse"
       id="clipPath2821-7"><path
         d="M 0,589.265 H 589.265 V 0 H 0 Z"
         id="path2819-6" /></clipPath><clipPath
       clipPathUnits="userSpaceOnUse"
       id="clipPath2861-3"><path
         d="M 0,589.265 H 589.265 V 0 H 0 Z"
         id="path2859-1" /></clipPath></defs><g
     inkscape:label="Layer 1"
     inkscape:groupmode="layer"
     id="layer1"><g
       id="g859"
       inkscape:export-filename="/home/kingcris/Documents/01-projects/Benzyme rebranding and web dev/benzyme-branding-assets/logos/logo with text/svg-format/full-colour/benzyme-logo-full-colour.png"
       inkscape:export-xdpi="96"
       inkscape:export-ydpi="96"
       transform="matrix(0.25162587,0,0,0.38780208,0.32852962,0.47696101)"><g
         id="g2799"
         transform="matrix(0.17543904,0,0,-0.17543904,24.479968,25.048698)"><path
           d="m 0,0 c 0,-11.372 -9.181,-20.827 -20.597,-20.827 h -0.165 -88.621 c -7.215,12.267 -11.957,26.155 -13.547,40.991 h 102.618 c 0.664,-0.014 1.558,0.007 1.965,0.014 0.426,0.009 0.984,-0.056 0.984,-0.056 C -7.511,18.559 0,10.259 0,0"
           style="fill:#f1aa4b;fill-opacity:1;fill-rule:nonzero;stroke:none"
           id="path2801" /></g><g
         id="g2803"
         transform="matrix(0.17543904,0,0,-0.17543904,20.916363,17.730101)"><path
           d="m 0,0 h -102.691 c 1.514,15.098 6.296,29.23 13.621,41.686 H 0.166 C 11.639,41.494 20.88,32.375 20.88,20.854 20.88,9.822 12.049,0.896 1.249,-0.018 Z"
           style="fill:#f1aa4b;fill-opacity:1;fill-rule:nonzero;stroke:none"
           id="path2805" /></g><g
         id="g2807"
         transform="matrix(0.17543904,0,0,-0.17543904,38.928671,19.559719)"><path
           d="m 0,0 c 0,-56.854 -46.088,-102.94 -102.94,-102.94 -27.977,0 -53.351,11.158 -71.908,29.273 h 72.344 c 22.915,0.323 41.389,19.26 41.389,42.161 0,12.36 -5.381,23.47 -13.936,31.13 8.913,7.734 14.547,19.142 14.547,31.868 0,23.235 -18.788,42.079 -42,42.175 h -72.348 c 18.556,18.115 43.93,29.278 71.912,29.278 C -46.088,102.945 0,56.854 0,0"
           style="fill:#f1aa4b;fill-opacity:1;fill-rule:nonzero;stroke:none"
           id="path2809" /></g><text
         xml:space="preserve"
         style="font-style:normal;font-variant:normal;font-weight:bold;font-stretch:normal;font-size:13.073px;line-height:1.25;font-family:'Abyssinica SIL';-inkscape-font-specification:'Abyssinica SIL, Bold';font-variant-ligatures:none;font-variant-caps:normal;font-variant-numeric:normal;font-variant-east-asian:normal;fill:#f1aa4b;fill-opacity:1;stroke-width:0.264992"
         x="42.995388"
         y="32.684395"
         id="text6040"><tspan
           sodipodi:role="line"
           id="tspan24489"
           x="42.995388"
           y="32.684395"
           dx="0 1.0015458 1.0015458 1.0015458 1.0015458 1.0015458 1.0015458 1.0015458"
           style="stroke-width:0.264992">VENTURES</tspan></text><text
         xml:space="preserve"
         style="font-style:normal;font-variant:normal;font-weight:bold;font-stretch:normal;font-size:18.7627px;line-height:1.25;font-family:Georgia;-inkscape-font-specification:'Georgia, Bold';font-variant-ligatures:none;font-variant-caps:normal;font-variant-numeric:normal;font-variant-east-asian:normal;fill:#f1aa4b;fill-opacity:1;stroke-width:0.194115"
         x="42.504742"
         y="19.484528"
         id="text22825"
         inkscape:export-filename="/home/kingcris/Documents/01-projects/Benzyme rebranding and web dev/benzyme-branding-assets/logos/logo with text/svg-format/full-colour/benzyme-logo-full-colour.png"
         inkscape:export-xdpi="96"
         inkscape:export-ydpi="96"><tspan
           sodipodi:role="line"
           id="tspan24469"
           x="42.504742"
           y="19.484528"
           dx="0 1.196676 1.196676 1.196676 2.3299999 2.3299999 1.196676"
           style="stroke-width:0.194115">BENZYME</tspan></text></g></g></svg>
